<?xml version="1.0" encoding="UTF-8" standalone="no"?>
<svg
   data-name="Layer 1"
   width="690.48529"
   height="480.83649"
   viewBox="0 0 690.48529 480.83649"
   version="1.1"
   id="svg50"
   sodipodi:docname="qws_communication.svg"
   inkscape:version="1.2.1 (9c6d41e410, 2022-07-14)"
   xmlns:inkscape="http://www.inkscape.org/namespaces/inkscape"
   xmlns:sodipodi="http://sodipodi.sourceforge.net/DTD/sodipodi-0.dtd"
   xmlns="http://www.w3.org/2000/svg"
   xmlns:svg="http://www.w3.org/2000/svg">
  <defs
     id="defs54" />
  <sodipodi:namedview
     id="namedview52"
     pagecolor="#ffffff"
     bordercolor="#111111"
     borderopacity="1"
     inkscape:showpageshadow="0"
     inkscape:pageopacity="0"
     inkscape:pagecheckerboard="1"
     inkscape:deskcolor="#d1d1d1"
     showgrid="false"
     inkscape:zoom="1.3776881"
     inkscape:cx="361.83808"
     inkscape:cy="247.51612"
     inkscape:window-width="1920"
     inkscape:window-height="1027"
     inkscape:window-x="4472"
     inkscape:window-y="-8"
     inkscape:window-maximized="1"
     inkscape:current-layer="svg50" />
  <path
     d="m 48.125,0 h 376.31836 a 48.17928,48.17928 0 0 1 48.125,48.12512 v 205.87579 a 48.17923,48.17923 0 0 1 -48.125,48.12506 H 48.125 A 48.17923,48.17923 0 0 1 0,254.00091 V 48.12512 A 48.17928,48.17928 0 0 1 48.125,0 Z"
     fill="#f2f2f2"
     id="path26" />
  <path
     d="m 48.12451,13.85419 h 376.31885 a 34.30948,34.30948 0 0 1 34.271,34.27093 v 205.87579 a 34.30947,34.30947 0 0 1 -34.271,34.27088 H 48.12451 A 34.30936,34.30936 0 0 1 13.85401,254.00091 V 48.12512 a 34.30936,34.30936 0 0 1 34.2705,-34.27093 z"
     fill="#ffffff"
     id="path28" />
  <path
     d="m 51.79661,375.8365 a 8.63,8.63 0 0 1 -3.30688,-0.66895 8.3678,8.3678 0 0 1 -5.24707,-7.85254 v -71.16992 l 94.88256,-3.19238 -80.37231,80.37256 a 8.38269,8.38269 0 0 1 -5.9563,2.51123 z"
     fill="#f2f2f2"
     id="path30" />
  <rect
     x="73.825706"
     y="65.062988"
     width="324"
     height="41.027519"
     rx="20.513741"
     fill="#f2f2f2"
     id="rect32" />
  <rect
     x="74.28418"
     y="130.54922"
     width="324"
     height="41.027519"
     rx="20.513741"
     fill="#f2f2f2"
     id="rect34" />
  <rect
     x="74.742653"
     y="196.03548"
     width="324"
     height="41.027519"
     rx="20.513741"
     fill="#f2f2f2"
     id="rect36" />
  <path
     d="M 642.36031,105 H 266.04195 a 48.17928,48.17928 0 0 0 -48.125,48.12512 v 205.87579 a 48.17923,48.17923 0 0 0 48.125,48.12506 h 376.31836 a 48.17923,48.17923 0 0 0 48.125,-48.12506 V 153.12512 A 48.17928,48.17928 0 0 0 642.36031,105 Z"
     fill="#e6e6e6"
     id="path38" />
  <path
     d="M 642.3608,118.85419 H 266.04195 a 34.30948,34.30948 0 0 0 -34.271,34.27093 v 205.87579 a 34.30947,34.30947 0 0 0 34.271,34.27088 H 642.3608 a 34.30937,34.30937 0 0 0 34.27051,-34.27088 V 153.12512 A 34.30937,34.30937 0 0 0 642.3608,118.85419 Z"
     fill="#ffffff"
     id="path40" />
  <path
     d="m 613.7324,478.32527 -80.37231,-80.37256 94.88257,3.19238 v 71.16992 a 8.36781,8.36781 0 0 1 -5.24707,7.85254 8.63008,8.63008 0 0 1 -3.30689,0.66895 8.38269,8.38269 0 0 1 -5.9563,-2.51123 z"
     fill="#e6e6e6"
     id="path42" />
  <circle
     cx="371.20114"
     cy="256.06299"
     r="26"
     fill="#76ab54"
     id="circle44" />
  <circle
     cx="454.20114"
     cy="256.06299"
     r="26"
     fill="#76ab54"
     id="circle46" />
  <circle
     cx="537.20111"
     cy="256.06299"
     r="26"
     fill="#76ab54"
     id="circle48" />
</svg>
