<?xml version="1.0" encoding="UTF-8" standalone="no"?>
<svg
   data-name="Layer 1"
   width="94.782257"
   height="91.126228"
   viewBox="0 0 94.782258 91.126227"
   version="1.1"
   id="svg32"
   sodipodi:docname="qws_modern.svg"
   inkscape:version="1.2.1 (9c6d41e410, 2022-07-14)"
   xmlns:inkscape="http://www.inkscape.org/namespaces/inkscape"
   xmlns:sodipodi="http://sodipodi.sourceforge.net/DTD/sodipodi-0.dtd"
   xmlns="http://www.w3.org/2000/svg"
   xmlns:svg="http://www.w3.org/2000/svg">
  <defs
     id="defs36" />
  <sodipodi:namedview
     id="namedview34"
     pagecolor="#ffffff"
     bordercolor="#111111"
     borderopacity="1"
     inkscape:showpageshadow="0"
     inkscape:pageopacity="0"
     inkscape:pagecheckerboard="1"
     inkscape:deskcolor="#d1d1d1"
     showgrid="false"
     inkscape:zoom="1.7925046"
     inkscape:cx="230.12493"
     inkscape:cy="208.64661"
     inkscape:window-width="1920"
     inkscape:window-height="1027"
     inkscape:window-x="4472"
     inkscape:window-y="-8"
     inkscape:window-maximized="1"
     inkscape:current-layer="svg32" />
  <path
     d="m 70.700833,91.12623 a 9.64558,9.64558 0 0 1 -5.68739,-1.8833 L 51.307693,79.2854 a 6.64167,6.64167 0 0 0 -7.83386,0 l -13.70575,9.95753 A 9.67536,9.67536 0 0 1 14.878833,78.42682 l 5.23531,-16.11171 a 6.64911,6.64911 0 0 0 -2.42065,-7.45234 L 3.9877331,44.90524 A 9.67538,9.67538 0 0 1 9.6751327,27.40275 H 26.616013 a 6.64759,6.64759 0 0 0 6.33795,-4.60461 l 5.23531,-16.1116998 a 9.675,9.675 0 0 1 18.40371,0 l 5.23458,16.1116998 a 6.6485,6.6485 0 0 0 6.33868,4.60461 h 16.94089 a 9.67538,9.67538 0 0 1 5.68739,17.50249 l -13.70575,9.95753 a 6.64835,6.64835 0 0 0 -2.42139,7.45234 l 5.23531,16.11171 a 9.52983,9.52983 0 0 1 -3.5152,10.81611 9.64507,9.64507 0 0 1 -5.68666,1.8833 z"
     fill="#76ab54"
     id="path2" />
</svg>
