<?xml version="1.0" encoding="UTF-8" standalone="no"?>
<svg
   width="118.70412"
   height="33.299"
   viewBox="0 0 237.40825 66.598"
   version="1.1"
   id="svg8"
   sodipodi:docname="qws_logo_small.svg"
   inkscape:version="1.2.1 (9c6d41e410, 2022-07-14)"
   xmlns:inkscape="http://www.inkscape.org/namespaces/inkscape"
   xmlns:sodipodi="http://sodipodi.sourceforge.net/DTD/sodipodi-0.dtd"
   xmlns="http://www.w3.org/2000/svg"
   xmlns:svg="http://www.w3.org/2000/svg"
   xmlns:rdf="http://www.w3.org/1999/02/22-rdf-syntax-ns#"
   xmlns:cc="http://creativecommons.org/ns#"
   xmlns:dc="http://purl.org/dc/elements/1.1/">
  <sodipodi:namedview
     id="namedview18"
     pagecolor="#ffffff"
     bordercolor="#111111"
     borderopacity="1"
     inkscape:showpageshadow="0"
     inkscape:pageopacity="0"
     inkscape:pagecheckerboard="1"
     inkscape:deskcolor="#d1d1d1"
     showgrid="false"
     inkscape:zoom="1.4657651"
     inkscape:cx="391.26324"
     inkscape:cy="132.35409"
     inkscape:window-width="2560"
     inkscape:window-height="1387"
     inkscape:window-x="1912"
     inkscape:window-y="-8"
     inkscape:window-maximized="1"
     inkscape:current-layer="svg8" />
  <defs
     id="defs2" />
  <metadata
     id="metadata5">
    <rdf:RDF>
      <cc:Work
         rdf:about="">
        <dc:format>image/svg+xml</dc:format>
        <dc:type
           rdf:resource="http://purl.org/dc/dcmitype/StillImage" />
      </cc:Work>
    </rdf:RDF>
  </metadata>
  <g
     id="g870"
     style="display:inline;stroke:none"
     transform="translate(-46.38713,-48.200229)">
    <g
       aria-label="QUINN"
       id="text868"
       style="font-style:normal;font-variant:normal;font-weight:normal;font-stretch:normal;font-size:50.8px;line-height:1.25;font-family:Impact;-inkscape-font-specification:'Impact, Normal';font-variant-ligatures:normal;font-variant-caps:normal;font-variant-numeric:normal;font-variant-east-asian:normal;letter-spacing:0px;word-spacing:0px;fill:#78ab56;fill-opacity:1;stroke:none;stroke-width:1;stroke-miterlimit:4;stroke-dasharray:none;stroke-opacity:1">
      <path
         d="m 70.5717,89.202377 v 4.861719 h -7.887891 q -2.852539,0 -4.018359,-0.446484 -1.16582,-0.42168 -1.5875,-1.289844 -0.396875,-0.868164 -0.396875,-3.125391 -3.54707,-0.09922 -6.101953,-1.860351 Q 48.024239,85.580893 47.205685,82.877182 46.38713,80.148667 46.38713,74.741245 V 62.314096 q 0,-4.092773 0.471289,-6.225976 0.496094,-2.158008 2.00918,-4.043164 1.513086,-1.909961 3.894336,-2.877344 2.38125,-0.967383 5.283398,-0.967383 3.497461,0 6.225976,1.190625 2.753321,1.190625 4.092774,3.026172 1.364258,1.835547 1.761133,3.819922 0.421679,1.95957 0.421679,5.853906 V 75.13812 q 0,5.357812 -0.520898,7.267773 -0.520899,1.909961 -2.00918,3.050977 -1.463476,1.11621 -3.91914,1.711523 0.07441,1.339453 0.545703,1.686719 0.496093,0.347265 2.306836,0.347265 z M 60.104122,59.362339 q 0,-2.80293 -0.322461,-3.571875 -0.297656,-0.79375 -1.265039,-0.79375 -0.818555,0 -1.265039,0.644922 -0.42168,0.620117 -0.42168,3.720703 v 18.752343 q 0,3.497461 0.272852,4.316016 0.297656,0.818554 1.339453,0.818554 1.066601,0 1.364258,-0.942578 0.297656,-0.942578 0.297656,-4.489648 z"
         style="font-style:normal;font-variant:normal;font-weight:normal;font-stretch:normal;font-size:50.8px;font-family:Impact;-inkscape-font-specification:'Impact, Normal';font-variant-ligatures:normal;font-variant-caps:normal;font-variant-numeric:normal;font-variant-east-asian:normal;fill:#78ab56;fill-opacity:1;stroke:none;stroke-width:1;stroke-miterlimit:4;stroke-dasharray:none;stroke-opacity:1"
         id="path890" />
      <path
         d="M 98.179317,49.043589 V 75.88226 q 0,4.564063 -0.297657,6.424414 -0.297656,1.835547 -1.761132,3.795117 -1.463477,1.934766 -3.869532,2.951758 -2.381249,0.992188 -5.630663,0.992188 -3.59668,0 -6.35,-1.190625 -2.753321,-1.190625 -4.117578,-3.100586 -1.364258,-1.909961 -1.612305,-4.01836 -0.248047,-2.133203 -0.248047,-8.929687 v -23.76289 h 10.442773 v 30.11289 q 0,2.629297 0.272852,3.373437 0.297656,0.719336 1.16582,0.719336 0.992188,0 1.265039,-0.79375 0.297656,-0.818554 0.297656,-3.819921 V 49.043589 Z"
         style="font-style:normal;font-variant:normal;font-weight:normal;font-stretch:normal;font-size:50.8px;font-family:Impact;-inkscape-font-specification:'Impact, Normal';font-variant-ligatures:normal;font-variant-caps:normal;font-variant-numeric:normal;font-variant-east-asian:normal;fill:#78ab56;fill-opacity:1;stroke:none;stroke-width:1;stroke-miterlimit:4;stroke-dasharray:none;stroke-opacity:1"
         id="path892" />
      <path
         d="M 112.66526,49.043589 V 89.202377 H 102.22248 V 49.043589 Z"
         style="font-style:normal;font-variant:normal;font-weight:normal;font-stretch:normal;font-size:50.8px;font-family:Impact;-inkscape-font-specification:'Impact, Normal';font-variant-ligatures:normal;font-variant-caps:normal;font-variant-numeric:normal;font-variant-east-asian:normal;fill:#78ab56;fill-opacity:1;stroke:none;stroke-width:1;stroke-miterlimit:4;stroke-dasharray:none;stroke-opacity:1"
         id="path894" />
      <path
         d="m 140.17365,49.043589 v 40.158788 h -9.15292 L 125.5885,70.946128 v 18.256249 h -8.73125 V 49.043589 h 8.73125 l 5.8539,18.082617 V 49.043589 Z"
         style="font-style:normal;font-variant:normal;font-weight:normal;font-stretch:normal;font-size:50.8px;font-family:Impact;-inkscape-font-specification:'Impact, Normal';font-variant-ligatures:normal;font-variant-caps:normal;font-variant-numeric:normal;font-variant-east-asian:normal;fill:#78ab56;fill-opacity:1;stroke:none;stroke-width:1;stroke-miterlimit:4;stroke-dasharray:none;stroke-opacity:1"
         id="path896" />
      <path
         d="m 167.68205,49.043589 v 40.158788 h -9.15293 L 153.0969,70.946128 v 18.256249 h -8.73125 V 49.043589 h 8.73125 l 5.8539,18.082617 V 49.043589 Z"
         style="font-style:normal;font-variant:normal;font-weight:normal;font-stretch:normal;font-size:50.8px;font-family:Impact;-inkscape-font-specification:'Impact, Normal';font-variant-ligatures:normal;font-variant-caps:normal;font-variant-numeric:normal;font-variant-east-asian:normal;fill:#78ab56;fill-opacity:1;stroke:none;stroke-width:1;stroke-miterlimit:4;stroke-dasharray:none;stroke-opacity:1"
         id="path898" />
    </g>
  </g>
  <g
     id="layer3"
     style="display:inline"
     transform="translate(-46.38713,-48.200229)">
    <text
       xml:space="preserve"
       style="font-style:normal;font-variant:normal;font-weight:normal;font-stretch:normal;font-size:50.8px;line-height:1.25;font-family:Impact;-inkscape-font-specification:'Impact, Normal';font-variant-ligatures:normal;font-variant-caps:normal;font-variant-numeric:normal;font-variant-east-asian:normal;letter-spacing:0px;word-spacing:0px;fill:#000000;fill-opacity:1;stroke:none;stroke-width:1;stroke-miterlimit:4;stroke-dasharray:none;stroke-opacity:1"
       x="174.92744"
       y="89.202377"
       id="text857"><tspan
         id="tspan855"
         x="174.92744"
         y="89.202377"
         style="font-style:normal;font-variant:normal;font-weight:normal;font-stretch:normal;font-size:50.8px;font-family:Impact;-inkscape-font-specification:'Impact, Normal';font-variant-ligatures:normal;font-variant-caps:normal;font-variant-numeric:normal;font-variant-east-asian:normal;stroke:none;stroke-width:1;stroke-miterlimit:4;stroke-dasharray:none;stroke-opacity:1;shape-rendering:geometricPrecision">WEB</tspan></text>
  </g>
  <g
     id="layer4"
     transform="matrix(1,0,0,1.0053649,-46.38713,-48.715235)"
     style="fill:#000000;fill-opacity:1;stroke:none">
    <text
       xml:space="preserve"
       style="font-style:normal;font-variant:normal;font-weight:500;font-stretch:normal;font-size:24.6944px;line-height:1.25;font-family:sans-serif;-inkscape-font-specification:'sans-serif, Normal';font-variant-ligatures:normal;font-variant-caps:normal;font-variant-numeric:normal;font-variant-east-asian:normal;letter-spacing:1.4px;word-spacing:0px;fill:#000000;fill-opacity:1;stroke:none;stroke-width:0.264583"
       x="48.0"
       y="114.32384"
       id="text862"><tspan
         id="tspan864"
         x="48.0"
         y="114.32384"
         style="fill:#000000;fill-opacity:1;stroke:none">S O L U T I O N S</tspan></text>
  </g>
</svg>
