<?xml version="1.0" encoding="UTF-8" standalone="no"?>
<svg
   viewBox="0 0 251.7 177.84"
   width="251.7"
   height="177.84"
   class="illustration styles_illustrationTablet__1DWOa"
   version="1.1"
   id="svg135"
   xmlns="http://www.w3.org/2000/svg"
   xmlns:svg="http://www.w3.org/2000/svg">
  <defs
     id="defs139" />
  <g
     id="_182_code_css_flatline"
     data-name="#182_code_css_flatline"
     transform="translate(-74.15,-62.5)">
    <rect
       x="88.139999"
       y="63.040001"
       width="223.73"
       height="143.25999"
       rx="7"
       fill="#ffffff"
       id="rect2" />
    <path
       d="M 304.86,206.8 H 95.14 a 7.5,7.5 0 0 1 -7.5,-7.5 V 70 a 7.51,7.51 0 0 1 7.5,-7.5 h 209.72 a 7.51,7.51 0 0 1 7.5,7.5 v 129.3 a 7.5,7.5 0 0 1 -7.5,7.5 z M 95.14,63.54 a 6.51,6.51 0 0 0 -6.5,6.5 V 199.3 a 6.51,6.51 0 0 0 6.5,6.5 h 209.72 a 6.51,6.51 0 0 0 6.5,-6.5 V 70 a 6.51,6.51 0 0 0 -6.5,-6.5 z"
       fill="#231f20"
       id="path4" />
    <path
       d="M 311.86,184.14 H 88.14 a 0.5,0.5 0 0 1 -0.5,-0.5 0.5,0.5 0 0 1 0.5,-0.5 h 223.72 a 0.5,0.5 0 0 1 0.5,0.5 0.5,0.5 0 0 1 -0.5,0.5 z"
       fill="#231f20"
       id="path6" />
    <polygon
       points="181.95,206.3 218.05,206.3 228.59,233.99 171.41,233.99 "
       fill="#ffffff"
       id="polygon8" />
    <path
       d="m 228.6,234.49 h -57.2 a 0.52,0.52 0 0 1 -0.41,-0.21 0.5,0.5 0 0 1 -0.05,-0.46 l 10.54,-27.7 a 0.51,0.51 0 0 1 0.47,-0.32 h 36.1 a 0.51,0.51 0 0 1 0.47,0.32 l 10.54,27.7 a 0.5,0.5 0 0 1 -0.05,0.46 0.52,0.52 0 0 1 -0.41,0.21 z m -56.47,-1 h 55.74 L 217.71,206.8 h -35.42 z"
       fill="#231f20"
       id="path10" />
    <rect
       x="161.34"
       y="232.37"
       width="77.309998"
       height="7.4699998"
       rx="3.3499999"
       fill="#ffffff"
       id="rect12" />
    <path
       d="m 235.3,240.34 h -70.6 a 3.86,3.86 0 0 1 -3.86,-3.85 v -0.77 a 3.86,3.86 0 0 1 3.86,-3.85 h 70.6 a 3.86,3.86 0 0 1 3.86,3.85 v 0.77 a 3.86,3.86 0 0 1 -3.86,3.85 z m -70.6,-7.47 a 2.86,2.86 0 0 0 -2.86,2.85 v 0.77 a 2.86,2.86 0 0 0 2.86,2.85 h 70.6 a 2.86,2.86 0 0 0 2.86,-2.85 v -0.77 a 2.86,2.86 0 0 0 -2.86,-2.85 z"
       fill="#231f20"
       id="path14" />
    <rect
       x="96.120003"
       y="69.790001"
       width="207.75"
       height="105.08"
       fill="#78ab56"
       id="rect16" />
    <rect
       x="96.120003"
       y="69.790001"
       width="207.75"
       height="105.08"
       fill="#231f20"
       id="rect18" />
    <rect
       x="96.120003"
       y="69.790001"
       width="105.08"
       height="105.08"
       fill="#78ab56"
       id="rect20" />
    <polygon
       points="217.65,206.3 181.55,206.3 176.73,218.95 219.31,210.68 "
       fill="#231f20"
       id="polygon22" />
    <path
       d="m 176.73,219.45 a 0.49,0.49 0 0 1 -0.38,-0.18 0.51,0.51 0 0 1 -0.09,-0.5 l 4.82,-12.65 a 0.5,0.5 0 0 1 0.47,-0.32 h 36.1 a 0.5,0.5 0 0 1 0.46,0.32 l 1.67,4.38 a 0.5,0.5 0 0 1 -0.37,0.67 l -42.58,8.27 z m 5.16,-12.65 -4.37,11.49 41.11,-8 -1.33,-3.5 z"
       fill="#231f20"
       id="path24" />
    <path
       d="m 222,85.12 h -12.66 a 0.5,0.5 0 0 1 0,-1 H 222 a 0.5,0.5 0 0 1 0,1 z"
       fill="#78ab56"
       id="path26" />
    <path
       d="m 253.75,85.12 h -25.16 a 0.5,0.5 0 0 1 0,-1 h 25.16 a 0.5,0.5 0 0 1 0,1 z"
       fill="#ffffff"
       id="path28" />
    <path
       d="m 261.32,94.86 h -25.16 a 0.5,0.5 0 0 1 0,-1 h 25.16 a 0.5,0.5 0 0 1 0,1 z"
       fill="#ffffff"
       id="path30" />
    <path
       d="M 224.91,94.86 H 212.3 a 0.5,0.5 0 0 1 0,-1 h 12.61 a 0.5,0.5 0 0 1 0,1 z"
       fill="#78ab56"
       id="path32" />
    <path
       d="m 225.39,104.6 h -10.13 a 0.5,0.5 0 0 1 -0.5,-0.5 0.5,0.5 0 0 1 0.5,-0.5 h 10.13 a 0.51,0.51 0 0 1 0.5,0.5 0.5,0.5 0 0 1 -0.5,0.5 z"
       fill="#78ab56"
       id="path34" />
    <path
       d="m 265.82,104.6 h -31.49 a 0.5,0.5 0 0 1 -0.5,-0.5 0.5,0.5 0 0 1 0.5,-0.5 h 31.49 a 0.5,0.5 0 0 1 0.5,0.5 0.5,0.5 0 0 1 -0.5,0.5 z"
       fill="#ffffff"
       id="path36" />
    <path
       d="m 230.83,114.35 h -12.61 a 0.5,0.5 0 0 1 -0.5,-0.5 0.5,0.5 0 0 1 0.5,-0.5 h 12.61 a 0.5,0.5 0 0 1 0.5,0.5 0.51,0.51 0 0 1 -0.5,0.5 z"
       fill="#78ab56"
       id="path38" />
    <path
       d="m 272.33,114.35 h -37.44 a 0.5,0.5 0 0 1 -0.5,-0.5 0.5,0.5 0 0 1 0.5,-0.5 h 37.44 a 0.5,0.5 0 0 1 0.5,0.5 0.5,0.5 0 0 1 -0.5,0.5 z"
       fill="#ffffff"
       id="path40" />
    <path
       d="m 227.48,124.09 h -12.61 a 0.5,0.5 0 0 1 0,-1 h 12.61 a 0.5,0.5 0 0 1 0,1 z"
       fill="#78ab56"
       id="path42" />
    <path
       d="m 252.62,124.09 h -20.31 a 0.5,0.5 0 0 1 0,-1 h 20.31 a 0.5,0.5 0 0 1 0,1 z"
       fill="#ffffff"
       id="path44" />
    <path
       d="m 280.68,124.09 h -20.31 a 0.5,0.5 0 0 1 0,-1 h 20.31 a 0.5,0.5 0 0 1 0,1 z"
       fill="#78ab56"
       id="path46" />
    <path
       d="m 219.22,133.83 h -4.35 a 0.5,0.5 0 0 1 -0.5,-0.5 0.51,0.51 0 0 1 0.5,-0.5 h 4.35 a 0.51,0.51 0 0 1 0.5,0.5 0.5,0.5 0 0 1 -0.5,0.5 z"
       fill="#78ab56"
       id="path48" />
    <path
       d="m 252.62,133.83 h -26 a 0.5,0.5 0 0 1 -0.5,-0.5 0.51,0.51 0 0 1 0.5,-0.5 h 26 a 0.51,0.51 0 0 1 0.5,0.5 0.5,0.5 0 0 1 -0.5,0.5 z"
       fill="#ffffff"
       id="path50" />
    <path
       d="m 262.86,133.83 h -7.25 a 0.5,0.5 0 0 1 -0.5,-0.5 0.5,0.5 0 0 1 0.5,-0.5 h 7.25 a 0.5,0.5 0 0 1 0.5,0.5 0.5,0.5 0 0 1 -0.5,0.5 z"
       fill="#78ab56"
       id="path52" />
    <path
       d="m 221.7,143.58 h -6.83 a 0.51,0.51 0 0 1 -0.5,-0.5 0.5,0.5 0 0 1 0.5,-0.5 h 6.83 a 0.5,0.5 0 0 1 0.5,0.5 0.51,0.51 0 0 1 -0.5,0.5 z"
       fill="#78ab56"
       id="path54" />
    <path
       d="m 259,143.58 h -30.88 a 0.51,0.51 0 0 1 -0.5,-0.5 0.5,0.5 0 0 1 0.5,-0.5 H 259 a 0.5,0.5 0 0 1 0.5,0.5 0.5,0.5 0 0 1 -0.5,0.5 z"
       fill="#ffffff"
       id="path56" />
    <path
       d="M 274.64,143.58 H 262 a 0.5,0.5 0 0 1 -0.5,-0.5 0.5,0.5 0 0 1 0.5,-0.5 h 12.61 a 0.5,0.5 0 0 1 0.5,0.5 0.5,0.5 0 0 1 -0.47,0.5 z"
       fill="#78ab56"
       id="path58" />
    <path
       d="m 218.6,153.32 h -6.69 a 0.5,0.5 0 0 1 0,-1 h 6.69 a 0.5,0.5 0 0 1 0,1 z"
       fill="#78ab56"
       id="path60" />
    <path
       d="m 255.61,153.32 h -29.22 a 0.5,0.5 0 0 1 0,-1 h 29.22 a 0.5,0.5 0 0 1 0,1 z"
       fill="#ffffff"
       id="path62" />
    <path
       d="m 224.52,163.06 h -12.61 a 0.5,0.5 0 0 1 -0.5,-0.5 0.51,0.51 0 0 1 0.5,-0.5 h 12.61 a 0.5,0.5 0 0 1 0.5,0.5 0.5,0.5 0 0 1 -0.5,0.5 z"
       fill="#78ab56"
       id="path64" />
    <path
       d="m 294.47,114.35 h -17.05 a 0.51,0.51 0 0 1 -0.5,-0.5 0.5,0.5 0 0 1 0.5,-0.5 h 17.05 a 0.5,0.5 0 0 1 0.5,0.5 0.5,0.5 0 0 1 -0.5,0.5 z"
       fill="#78ab56"
       id="path66" />
    <path
       d="m 269,85.17 c -5.7,0 -8.65,0 -8.8,-0.07 a 0.51305458,0.51305458 0 0 1 0.23,-1 c 0.94,0.08 20.83,0 28.44,0 v 0 a 0.5,0.5 0 0 1 0,1 c -8.47,0.05 -15.11,0.07 -19.87,0.07 z"
       fill="#78ab56"
       id="path68" />
    <path
       d="M 271.74,153.32 H 259 a 0.5,0.5 0 0 1 0,-1 h 12.76 a 0.5,0.5 0 0 1 0,1 z"
       fill="#78ab56"
       id="path70" />
    <path
       d="m 242.46,163.06 h -9.38 a 0.5,0.5 0 0 1 -0.5,-0.5 0.51,0.51 0 0 1 0.5,-0.5 h 9.38 a 0.5,0.5 0 0 1 0.5,0.5 0.5,0.5 0 0 1 -0.5,0.5 z"
       fill="#ffffff"
       id="path72" />
    <path
       d="M 268.33,163.06 H 246 a 0.5,0.5 0 0 1 -0.5,-0.5 0.51,0.51 0 0 1 0.5,-0.5 h 22.3 a 0.5,0.5 0 0 1 0.5,0.5 0.5,0.5 0 0 1 -0.47,0.5 z"
       fill="#78ab56"
       id="path74" />
    <path
       d="m 230.65,80.9 -134.324139,0.01172 c -0.273909,-0.0053 -0.20639,-0.226092 -0.21171,-0.5 0,-0.276142 -0.07225,-0.523462 0.203897,-0.523438 L 230.65,79.9 c 0.27614,2.4e-5 0.5,0.223858 0.5,0.5 0,0.276142 -0.22386,0.499976 -0.5,0.5 z"
       fill="#231f20"
       id="path76" />
    <circle
       cx="104.79"
       cy="75.050003"
       r="2.25"
       fill="#ffffff"
       id="circle78" />
    <circle
       cx="113.43"
       cy="75.050003"
       r="2.25"
       fill="#ffffff"
       id="circle80" />
    <circle
       cx="122.06"
       cy="75.050003"
       r="2.25"
       fill="#ffffff"
       id="circle82" />
    <rect
       x="105.38"
       y="86.830002"
       width="86.260002"
       height="35.5"
       fill="#ffffff"
       id="rect84" />
    <path
       d="M 105.38,122.83 A 0.5,0.5 0 0 1 105,122 l 31.52,-28.29 a 0.49,0.49 0 0 1 0.67,0 l 26.5,24.42 a 0.51,0.51 0 0 1 0,0.71 0.5,0.5 0 0 1 -0.71,0 l -26.09,-24.12 -31.18,28 a 0.46,0.46 0 0 1 -0.33,0.11 z"
       fill="#78ab56"
       id="path86" />
    <path
       d="m 158.52,114.48 a 0.46,0.46 0 0 1 -0.36,-0.16 0.49,0.49 0 0 1 0,-0.7 L 175.1,97.84 a 0.5,0.5 0 0 1 0.69,0 L 192,113.62 a 0.51,0.51 0 0 1 0,0.71 0.5,0.5 0 0 1 -0.71,0 l -15.83,-15.44 -16.6,15.46 a 0.48,0.48 0 0 1 -0.34,0.13 z"
       fill="#78ab56"
       id="path88" />
    <path
       d="m 160.14,102.07 a 4.3,4.3 0 1 1 3.75,-4.26 4,4 0 0 1 -3.75,4.26 z m 0,-7.53 a 3.31,3.31 0 1 0 2.75,3.27 3.05,3.05 0 0 0 -2.75,-3.27 z"
       fill="#78ab56"
       id="path90" />
    <path
       d="m 191,129.7 h -85.62 a 0.5,0.5 0 0 1 0,-1 H 191 a 0.5,0.5 0 1 1 0,1 z"
       fill="#ffffff"
       id="path92" />
    <path
       d="m 191,136.7 h -85.62 a 0.5,0.5 0 0 1 -0.5,-0.5 0.5,0.5 0 0 1 0.5,-0.5 H 191 a 0.5,0.5 0 0 1 0.5,0.5 0.51,0.51 0 0 1 -0.5,0.5 z"
       fill="#ffffff"
       id="path94" />
    <path
       d="m 179.13,143.69 h -73.75 a 0.5,0.5 0 0 1 -0.5,-0.5 0.5,0.5 0 0 1 0.5,-0.5 h 73.75 a 0.51,0.51 0 0 1 0.5,0.5 0.5,0.5 0 0 1 -0.5,0.5 z"
       fill="#ffffff"
       id="path96" />
    <path
       d="m 129.8,166.35 h -24.42 a 0.5,0.5 0 0 1 -0.5,-0.5 v -17 a 0.5,0.5 0 0 1 0.5,-0.5 h 24.42 a 0.51,0.51 0 0 1 0.5,0.5 v 17 a 0.51,0.51 0 0 1 -0.5,0.5 z m -23.92,-1 h 23.42 v -16 h -23.42 z"
       fill="#ffffff"
       id="path98" />
    <path
       d="M 160.41,166.35 H 136 a 0.51,0.51 0 0 1 -0.5,-0.5 v -17 a 0.51,0.51 0 0 1 0.5,-0.5 h 24.42 a 0.5,0.5 0 0 1 0.5,0.5 v 17 a 0.5,0.5 0 0 1 -0.51,0.5 z m -23.92,-1 h 23.42 v -16 h -23.42 z"
       fill="#ffffff"
       id="path100" />
    <path
       d="m 191,166.35 h -24.39 a 0.5,0.5 0 0 1 -0.5,-0.5 v -17 a 0.5,0.5 0 0 1 0.5,-0.5 H 191 a 0.51,0.51 0 0 1 0.5,0.5 v 17 a 0.51,0.51 0 0 1 -0.5,0.5 z m -23.92,-1 h 23.42 v -16 h -23.39 z"
       fill="#ffffff"
       id="path102" />
    
    <rect
       x="231.31"
       y="141.67"
       width="88.830002"
       height="54.889999"
       fill="#ffffff"
       id="rect106" />
    <path
       d="m 320.14,197.07 h -88.83 a 0.51,0.51 0 0 1 -0.5,-0.5 v -54.9 a 0.51,0.51 0 0 1 0.5,-0.5 h 88.83 a 0.51,0.51 0 0 1 0.5,0.5 v 54.9 a 0.51,0.51 0 0 1 -0.5,0.5 z m -88.33,-1 h 87.83 v -53.9 h -87.83 z"
       fill="#d1d3d4"
       id="path108" />
    <path
       d="m 320.14,151.8 h -88.26 a 0.5,0.5 0 0 1 0,-1 h 88.26 a 0.5,0.5 0 0 1 0,1 z"
       fill="#d1d3d4"
       id="path110" />
    <rect
       x="80.029999"
       y="114.31"
       width="33.349998"
       height="29.77"
       fill="#ffffff"
       id="rect122" />
    <path
       d="M 113.38,144.59 H 80 a 0.5,0.5 0 0 1 -0.5,-0.5 v -29.78 a 0.5,0.5 0 0 1 0.5,-0.5 h 33.35 a 0.51,0.51 0 0 1 0.5,0.5 v 29.78 a 0.51,0.51 0 0 1 -0.47,0.5 z m -32.85,-1 h 32.35 V 114.81 H 80.53 Z"
       fill="#d1d3d4"
       id="path124" />
    <path
       d="M 113.38,118.82 H 80 a 0.5,0.5 0 0 1 -0.5,-0.5 0.5,0.5 0 0 1 0.5,-0.5 h 33.35 a 0.5,0.5 0 0 1 0.5,0.5 0.51,0.51 0 0 1 -0.47,0.5 z"
       fill="#d1d3d4"
       id="path126" />
    <path
       d="m 84.75,131.22 v -1.28 l 5.94,-3.57 1,1.62 -4.46,2.59 4.46,2.61 -1,1.61 z"
       fill="#78ab56"
       id="path128" />
    <path
       d="m 92.52,136.17 7,-12 1.33,0.84 -7,12 z"
       fill="#78ab56"
       id="path130" />
    <path
       d="m 101.7,133.19 4.46,-2.61 -4.46,-2.58 1,-1.62 5.94,3.57 v 1.28 l -5.94,3.58 z"
       fill="#78ab56"
       id="path132" />
  </g>
  <g
     id="layer1">
    <text
       xml:space="preserve"
       style="font-style:normal;font-variant:normal;font-weight:normal;font-stretch:normal;font-size:18.6667px;line-height:1.25;font-family:'Arial Rounded MT Bold';-inkscape-font-specification:'Arial Rounded MT Bold, Normal';font-variant-ligatures:normal;font-variant-caps:normal;font-variant-numeric:normal;font-variant-east-asian:normal;letter-spacing:0px;word-spacing:0px;fill:#78ab56;fill-opacity:1;stroke:none"
       x="164.6281"
       y="116.03306"
       id="text3389"><tspan
         id="tspan3387"
         x="164.6281"
         y="116.03306">&lt;CODE&gt;</tspan></text>
  </g>
</svg>
