<?xml version="1.0" encoding="UTF-8" standalone="no"?>
<svg
   data-name="Layer 1"
   width="445"
   height="426"
   viewBox="0 0 444.99999 425.99998"
   version="1.1"
   id="svg76"
   sodipodi:docname="undraw_product_iteration_kjok (1).svg"
   inkscape:version="1.2.1 (9c6d41e410, 2022-07-14)"
   xmlns:inkscape="http://www.inkscape.org/namespaces/inkscape"
   xmlns:sodipodi="http://sodipodi.sourceforge.net/DTD/sodipodi-0.dtd"
   xmlns="http://www.w3.org/2000/svg"
   xmlns:svg="http://www.w3.org/2000/svg">
  <defs
     id="defs80" />
  <sodipodi:namedview
     id="namedview78"
     pagecolor="#ffffff"
     bordercolor="#111111"
     borderopacity="1"
     inkscape:showpageshadow="0"
     inkscape:pageopacity="0"
     inkscape:pagecheckerboard="1"
     inkscape:deskcolor="#d1d1d1"
     showgrid="false"
     inkscape:zoom="1.6332807"
     inkscape:cx="348.99084"
     inkscape:cy="213.06809"
     inkscape:window-width="1920"
     inkscape:window-height="1027"
     inkscape:window-x="4472"
     inkscape:window-y="-8"
     inkscape:window-maximized="1"
     inkscape:current-layer="svg76" />
  <path
     d="m 223.08447,418 c -1.9956,-0.0156 -4.01416,-0.0293 -5.99658,-0.0908 l 0.0615,-1.999 c 1.96191,0.0605 3.96826,0.0879 5.93554,0.0898 1.97608,0 3.98975,-0.0322 5.98731,-0.0967 l 0.0644,1.99805 c -2.01953,0.0654 -4.05518,0.0986 -6.05225,0.0986 z m -18.019,-0.84472 c -3.98144,-0.377 -8.00244,-0.8877 -11.95068,-1.51758 l 0.31543,-1.97461 c 3.90625,0.62305 7.88428,1.12891 11.82373,1.502 z m 36.09229,-0.0215 -0.19043,-1.99023 c 3.938,-0.377 7.91552,-0.8877 11.82177,-1.5166 l 0.31836,1.97461 c -3.94877,0.63574 -7.96927,1.15136 -11.94974,1.53222 z m -59.87256,-3.77831 c -3.89844,-0.88379 -7.8208,-1.90722 -11.65772,-3.041 l 0.5669,-1.918 c 3.7959,1.12207 7.67627,2.13379 11.5332,3.00781 z m 83.64844,-0.0498 -0.44434,-1.94922 c 3.86572,-0.88184 7.74512,-1.89844 11.52978,-3.02246 l 0.56934,1.918 c -3.82572,1.13571 -7.74711,2.16305 -11.65482,3.05368 z M 158.18852,406.5293 c -3.76172,-1.38184 -7.52539,-2.90332 -11.18652,-4.52344 l 0.80957,-1.82812 c 3.62158,1.60156 7.34472,3.10742 11.0664,4.47461 z m 129.833,-0.0781 -0.69141,-1.877 c 3.69873,-1.3623 7.40918,-2.86719 11.02783,-4.47265 l 0.81153,1.82812 c -3.65873,1.62309 -7.40921,3.14457 -11.14798,4.52153 z m -151.88721,-9.67969 c -3.54,-1.84766 -7.0752,-3.83985 -10.50635,-5.91992 l 1.03711,-1.71094 c 3.395,2.05957 6.89209,4.0293 10.39453,5.85742 z m 173.87256,-0.0732 -0.92578,-1.77247 c 3.49414,-1.82714 6.9834,-3.79687 10.36914,-5.85449 l 1.03906,1.709 c -3.42288,2.08006 -6.94925,4.0703 -10.48245,5.91796 z M 115.52539,384.27149 c -3.27881,-2.28809 -6.52832,-4.71485 -9.65918,-7.21094 l 1.24707,-1.56445 c 3.09766,2.4707 6.313,4.87109 9.55664,7.13476 z m 215.04981,-0.0713 -1.14649,-1.63867 c 3.24317,-2.2666 6.4541,-4.667 9.54395,-7.13477 l 1.24805,1.5625 c -3.12305,2.49414 -6.36817,4.91992 -9.64551,7.21094 z M 96.68799,369.24707 c -2.96387,-2.69043 -5.87793,-5.50976 -8.65967,-8.37793 l 1.43555,-1.39257 c 2.75244,2.83789 5.63574,5.627 8.56885,8.29 z m 252.70166,-0.0693 -1.3457,-1.48047 c 2.92578,-2.65723 5.80664,-5.44824 8.56347,-8.293 l 1.43555,1.39063 c -2.78516,2.87597 -5.69726,5.69631 -8.65332,8.38284 z M 79.9209,351.95899 c -2.59521,-3.043 -5.12549,-6.208 -7.52148,-9.40723 l 1.60107,-1.19922 c 2.37061,3.166 4.874,6.29785 7.44189,9.30762 z m 286.22754,-0.083 -1.52148,-1.29688 c 2.56738,-3.01269 5.07128,-6.14843 7.4414,-9.31835 l 1.60156,1.19726 c -2.3955,3.20409 -4.92582,6.37304 -7.52148,9.41796 z M 65.49463,332.68457 c -2.188,-3.35058 -4.29346,-6.81054 -6.2583,-10.28418 l 1.74121,-0.98437 c 1.94336,3.43652 4.02686,6.86035 6.1919,10.1748 z m 315.08252,-0.10839 -1.67578,-1.0918 c 2.166,-3.32129 4.249,-6.751 6.19336,-10.19531 l 1.74219,0.98242 c -1.96482,3.48238 -4.07129,6.94922 -6.25977,10.30469 z M 53.65137,311.73828 c -1.74024,-3.5996 -3.38428,-7.29882 -4.88623,-10.99609 l 1.85254,-0.752 c 1.48633,3.65625 3.11279,7.3164 4.83447,10.877 z m 338.77246,-0.15625 -1.80073,-0.86916 c 1.7207,-3.5664 3.34766,-7.23632 4.83594,-10.91015 l 1.85351,0.75 c -1.50395,3.71388 -3.14845,7.42482 -4.88872,11.02931 z m -347.8335,-22.1416 c -1.26513,-3.79883 -2.42089,-7.68457 -3.43554,-11.5498 l 1.93457,-0.50781 c 1.00342,3.82324 2.147,7.668 3.39843,11.4248 z m 356.88916,-0.21191 -1.89843,-0.62891 c 1.24414,-3.75293 2.38379,-7.59863 3.38476,-11.42968 l 1.93555,0.50585 c -1.0127,3.87309 -2.16406,7.75977 -3.42188,11.55274 z m -363.00781,-23.082 c -0.76416,-3.92383 -1.41064,-7.92481 -1.92187,-11.89258 l 1.9834,-0.25586 c 0.50585,3.92578 1.1455,7.88379 1.90136,11.76563 z m 369.09863,-0.21973 -1.96289,-0.37891 c 0.75,-3.88085 1.38575,-7.84082 1.88672,-11.76953 l 1.98438,0.25391 c -0.50684,3.97067 -1.14942,7.97261 -1.90821,11.8945 z M 35.39356,242.26368 c -0.25635,-3.98633 -0.38868,-8.03809 -0.39307,-12.043 l 2,-0.002 c 0.004,3.96289 0.13525,7.97168 0.38916,11.916 z m 375.22754,-0.22364 -1.9961,-0.12695 C 408.874,237.97266 409,233.96387 409,230 l -10e-4,-0.43847 h 2 l 10e-4,0.43164 c 0,4.0127 -0.1279,8.06347 -0.3789,12.04687 z m -373.25928,-23.73535 -1.9961,-0.123 c 0.248,-3.99414 0.62745,-8.02929 1.12793,-11.99414 l 1.98438,0.25 c -0.49561,3.92378 -0.87109,7.91597 -1.11621,11.86714 z m 371.23584,-0.65625 c -0.25977,-3.95312 -0.64942,-7.94434 -1.1582,-11.8623 l 1.98242,-0.25782 c 0.51465,3.96 0.90918,7.99317 1.17187,11.98926 z M 40.3511,194.66797 38.38723,194.29004 c 0.75439,-3.92529 1.648,-7.8789 2.65478,-11.751 l 1.93555,0.50293 c -0.99611,3.83108 -1.8799,7.74221 -2.62646,11.626 z m 365.17138,-0.645 c -0.76172,-3.88574 -1.66015,-7.79394 -2.668,-11.6167 l 1.9336,-0.50976 c 1.01953,3.86377 1.92676,7.814 2.69726,11.7417 z m -359.17287,-22.41359 -1.89941,-0.627 c 1.25537,-3.8003 2.65283,-7.61231 4.15429,-11.33057 l 1.8545,0.749 c -1.48536,3.67829 -2.86768,7.44929 -4.10938,11.20857 z m 353.09473,-0.62354 c -1.25586,-3.7539 -2.64942,-7.51416 -4.14258,-11.17675 l 1.85156,-0.75489 c 1.50977,3.70215 2.91895,7.50293 4.1875,11.29688 z M 55.28321,149.48287 53.48047,148.61569 c 1.73486,-3.60645 3.61084,-7.20508 5.5752,-10.69532 l 1.74316,0.98145 c -1.94385,3.45268 -3.79932,7.01273 -5.51562,10.58105 z m 335.17187,-0.54541 c -1.72266,-3.55127 -3.585,-7.09814 -5.53809,-10.542 l 1.74024,-0.98633 c 1.97363,3.48047 3.85644,7.06592 5.59668,10.65625 z M 66.98047,128.69825 65.30371,127.60743 c 2.18116,-3.35254 4.501,-6.68018 6.89453,-9.88965 l 1.60352,1.19531 c -2.36816,3.17578 -4.66357,6.46778 -6.82129,9.78516 z m 311.73242,-0.47071 c -2.16406,-3.30517 -4.46582,-6.58691 -6.84277,-9.7539 l 1.59961,-1.2002 c 2.40234,3.20117 4.72949,6.51807 6.917,9.8584 z M 81.23242,109.58643 79.70899,108.29151 c 2.59033,-3.04737 5.31347,-6.05127 8.09375,-8.92774 l 1.43847,1.38965 c -2.75097,2.84619 -5.44531,5.81836 -8.00879,8.83301 z m 283.18457,-0.41211 c -2.57128,-3.00635 -5.27441,-5.96973 -8.03222,-8.80762 l 1.43359,-1.39355 c 2.78809,2.86767 5.51953,5.86279 8.11817,8.90137 z M 97.79444,92.44922 96.44776,90.97071 c 2.95947,-2.6958 6.0415,-5.32813 9.15966,-7.82325 l 1.25,1.56153 c -3.08545,2.46875 -6.13476,5.07324 -9.06298,7.74023 z m 250.01123,-0.36279 c -2.93262,-2.65479 -5.99024,-5.25147 -9.08985,-7.71729 l 1.2461,-1.56543 c 3.13183,2.49268 6.22265,5.1167 9.18554,7.8003 z M 116.3931,77.56299 115.24564,75.9253 c 3.27246,-2.29346 6.66308,-4.51075 10.07763,-6.59082 l 1.04053,1.708 c -3.37796,2.05811 -6.73294,4.25196 -9.9707,6.52051 z m 212.7583,-0.31836 c -3.25586,-2.26611 -6.62109,-4.45263 -10.00293,-6.499 l 1.03516,-1.71094 c 3.418,2.06787 6.82031,4.27783 10.11035,6.56836 z M 136.72705,65.1753 135.79834,63.40381 c 3.53565,-1.85449 7.18018,-3.61914 10.83106,-5.24463 l 0.81347,1.82715 c -3.6123,1.60791 -7.21728,3.35401 -10.71582,5.18897 z m 172.02,-0.27442 c -3.5122,-1.82812 -7.13135,-3.56592 -10.75781,-5.16553 l 0.80762,-1.83007 c 3.665,1.6167 7.32373,3.37353 10.874,5.22119 z M 158.4658,55.5 157.77147,53.624 c 3.75,-1.38721 7.59521,-2.67041 11.4292,-3.81348 l 0.57128,1.917 c -3.79294,1.13035 -7.59666,2.39992 -11.30613,3.77248 z m 128.45166,-0.22705 c -3.71728,-1.35986 -7.52588,-2.61572 -11.31982,-3.73193 l 0.56445,-1.919 c 3.835,1.12842 7.68506,2.398 11.44287,3.773 z m -105.61961,-6.58008 -0.44629,-1.94921 c 3.89112,-0.89161 7.86915,-1.66846 11.82373,-2.31055 l 0.32032,1.97461 c -3.9126,0.63476 -7.84815,1.40332 -11.69776,2.28515 z m 82.7627,-0.1455 c -3.85645,-0.86914 -7.79492,-1.624 -11.70606,-2.24414 l 0.31348,-1.97559 c 3.95313,0.62695 7.93408,1.39014 11.832,2.26855 z m -59.24463,-3.67041 -0.19336,-1.99024 c 3.9707,-0.38525 8.01514,-0.64844 12.02051,-0.78174 l 0.0664,1.999 c -3.96337,0.13189 -7.96484,0.39212 -11.89355,0.77298 z m 35.71289,-0.062 c -3.93457,-0.36767 -7.9375,-0.61376 -11.896,-0.73144 l 0.0596,-1.999 c 4.00049,0.11914 8.0459,0.36767 12.02247,0.73925 z"
     fill="#d0cde1"
     id="path34" />
  <circle
     cx="216"
     cy="47"
     r="47"
     fill="#78ab56"
     id="circle36" />
  <circle
     cx="398"
     cy="175"
     r="47"
     fill="#78ab56"
     id="circle38" />
  <circle
     cx="341"
     cy="371"
     r="47"
     fill="#78ab56"
     id="circle40" />
  <circle
     cx="115"
     cy="379"
     r="47"
     fill="#78ab56"
     id="circle42" />
  <circle
     cx="47"
     cy="175"
     r="47"
     fill="#78ab56"
     id="circle44" />
  <path
     d="m 419.82037,171.21618 h -16.39382 a 5.62074,5.62074 0 0 1 -5.62074,-5.62074 V 149.2016 a 0.46838,0.46838 0 0 0 -0.46839,-0.46839 h -10.77308 a 7.49432,7.49432 0 0 0 -7.49432,7.49431 v 37.47158 a 7.49432,7.49432 0 0 0 7.49432,7.49432 h 26.23015 a 7.49432,7.49432 0 0 0 7.49432,-7.49432 v -22.01455 a 0.46839,0.46839 0 0 0 -0.46844,-0.46837 z m -10.77308,18.73577 h -18.7358 a 1.87358,1.87358 0 1 1 0,-3.74716 h 18.7358 a 1.87358,1.87358 0 0 1 0,3.74716 z m 0,-9.3679 h -18.7358 a 1.87358,1.87358 0 1 1 0,-3.74716 h 18.7358 a 1.87358,1.87358 0 1 1 0,3.74716 z"
     fill="#ffffff"
     id="path46" />
  <path
     d="m 418.79224,167.06969 -16.84,-16.84 a 0.2342,0.2342 0 0 0 -0.39931,0.16511 v 15.20058 a 1.87358,1.87358 0 0 0 1.87358,1.87358 h 15.20058 a 0.2342,0.2342 0 0 0 0.16511,-0.39931 z"
     fill="#ffffff"
     id="path48" />
  <path
     d="m 52.686405,167.81661 a 2.49081,2.49081 0 1 0 1.76194,0.72885 2.49079,2.49079 0 0 0 -1.76194,-0.72885 z"
     fill="#ffffff"
     id="path50" />
  <path
     d="m 66.553325,157.85619 v -0.008 a 1.9038,1.9038 0 0 0 -1.412,-1.42785 c -2.781,-0.67846 -7.156,0.0448 -12.00418,1.98592 a 38.60712,38.60712 0 0 0 -12.55946,7.953 29.92888,29.92888 0 0 0 -2.7577,3.15713 12.23184,12.23184 0 0 0 -5.466,0.87817 c -5.38849,2.37135 -6.92739,8.44016 -7.33708,10.93189 a 2.3331,2.3331 0 0 0 2.53746,2.70638 h 0.0121 l 6.00256,-0.65513 c 0.007,0.0765 0.0159,0.14652 0.0224,0.21091 a 3.20656,3.20656 0 0 0 0.9239,1.93366 l 2.92942,2.93129 a 3.1982,3.1982 0 0 0 1.93273,0.92484 l 0.20064,0.0215 -0.65326,5.99509 v 0.0121 a 2.33308,2.33308 0 0 0 2.08074,2.56068 q 0.10764,0.0111 0.216,0.0122 a 2.357,2.357 0 0 0 0.38729,-0.0317 c 2.50573,-0.40316 8.57175,-1.9234 10.93656,-7.34082 a 12.34154,12.34154 0 0 0 0.88191,-5.44448 29.37812,29.37812 0 0 0 3.16833,-2.7577 38.32941,38.32941 0 0 0 7.96141,-12.46054 c 1.93087,-4.79305 2.65786,-9.20071 1.9962,-12.08815 z m -9.9912,16.32038 a 5.48461,5.48461 0 1 1 -0.004,-7.75641 l 0.004,0.004 a 5.44076,5.44076 0 0 1 0.0582,7.69417 z"
     fill="#ffffff"
     id="path52" />
  <path
     d="m 37.108875,189.24832 a 1.49312,1.49312 0 0 0 -1.02656,0.24917 c -0.59634,0.40782 -1.19547,0.811 -1.80021,1.20387 a 1.39249,1.39249 0 0 1 -1.95979,-1.86647 l 1.13388,-1.95979 a 1.49317,1.49317 0 0 0 -1.41478,-2.32468 5.716,5.716 0 0 0 -3.32511,1.62942 c -0.34157,0.3425 -1.38026,1.38212 -1.93926,5.3437 a 33.40138,33.40138 0 0 0 -0.3005,3.4315 1.49316,1.49316 0 0 0 1.45442,1.53094 q 0.0194,5e-4 0.0387,4.9e-4 h 0.0373 a 33.585,33.585 0 0 0 3.4343,-0.29863 c 3.96344,-0.55994 5.00306,-1.59957 5.34463,-1.94113 a 5.6451,5.6451 0 0 0 1.62289,-3.33537 1.49317,1.49317 0 0 0 -1.29999,-1.66302 z"
     fill="#ffffff"
     id="path54" />
  <path
     d="m 98.82477,404.53987 h -3.40531 a 2.554,2.554 0 0 1 -2.554,-2.554 v -15.32392 a 2.554,2.554 0 0 1 2.554,-2.554 h 3.40531 a 2.554,2.554 0 0 1 2.554,2.554 v 15.32392 a 2.554,2.554 0 0 1 -2.554,2.554 z"
     fill="#ffffff"
     id="path56" />
  <path
     d="m 122.66195,404.53987 h -3.40531 a 2.554,2.554 0 0 1 -2.554,-2.554 v -25.53985 a 2.554,2.554 0 0 1 2.554,-2.554 h 3.40531 a 2.554,2.554 0 0 1 2.554,2.554 v 25.53985 a 2.554,2.554 0 0 1 -2.554,2.554 z"
     fill="#ffffff"
     id="path58" />
  <path
     d="m 134.58054,404.53987 h -3.40531 a 2.554,2.554 0 0 1 -2.554,-2.554 v -37.45844 a 2.554,2.554 0 0 1 2.554,-2.554 h 3.40531 a 2.554,2.554 0 0 1 2.554,2.554 v 37.45844 a 2.554,2.554 0 0 1 -2.554,2.554 z"
     fill="#ffffff"
     id="path60" />
  <path
     d="m 110.74336,404.53987 h -3.40526 a 2.554,2.554 0 0 1 -2.554,-2.554 v -45.97172 a 2.554,2.554 0 0 1 2.554,-2.554 h 3.40531 a 2.554,2.554 0 0 1 2.554,2.554 v 45.97172 a 2.554,2.554 0 0 1 -2.55405,2.554 z"
     fill="#ffffff"
     id="path62" />
  <path
     d="m 345.76001,368.75512 -2.43291,-2.43384 a 2.98172,2.98172 0 0 0 -4.2061,-0.0112 l -16.91481,15.6103 a 3.15889,3.15889 0 0 0 -1.05759,2.14871 2.992,2.992 0 0 0 0.85818,2.23071 l 3.634,3.67405 0.007,0.007 a 3.00877,3.00877 0 0 0 2.11424,0.87775 h 0.11 a 3.12884,3.12884 0 0 0 2.159,-1.04081 l 15.71874,-16.83791 a 2.98174,2.98174 0 0 0 0.0182,-4.21677 z"
     fill="#ffffff"
     id="path64" />
  <path
     d="m 365.31272,363.83619 -0.0289,-0.0289 -3.19325,-3.16064 a 1.99963,1.99963 0 0 0 -1.42378,-0.5833 2.03966,2.03966 0 0 0 -1.19176,0.38576 c 0,-0.0401 0.006,-0.0792 0.008,-0.11368 a 3.40623,3.40623 0 0 0 -0.48453,-2.35 24.03891,24.03891 0 0 0 -2.31084,-2.678 l -0.007,-0.007 a 25.22236,25.22236 0 0 0 -8.0805,-5.21244 13.00307,13.00307 0 0 0 -4.946,-0.97372 9.426,9.426 0 0 0 -6.03335,2.1133 11.174,11.174 0 0 0 -1.32128,1.51137 1.49087,1.49087 0 0 0 1.73779,2.268 6.9359,6.9359 0 0 1 0.79948,-0.24506 5.91293,5.91293 0 0 1 1.71915,-0.10716 7.22788,7.22788 0 0 1 3.32557,1.21971 4.78951,4.78951 0 0 1 1.70145,3.82873 9.9386,9.9386 0 0 1 -1.86358,3.21282 1.49086,1.49086 0 0 0 0.13511,1.95676 l 3.20629,3.2063 a 1.49087,1.49087 0 0 0 2.04994,0.0578 c 0.90664,-0.80973 2.28755,-2.03038 2.77022,-2.32948 a 3.4702,3.4702 0 0 1 1.36974,-0.54044 1.78717,1.78717 0 0 1 1.052,0.22177 0.11556,0.11556 0 0 1 -0.0289,0.0885 l -0.16958,0.1612 -0.028,0.0261 a 2.00521,2.00521 0 0 0 -0.005,2.83579 l 0.01,0.01 3.19232,3.1597 a 1.99865,1.99865 0 0 0 1.42377,0.58237 2.02193,2.02193 0 0 0 1.41819,-0.57771 l 5.17144,-5.10808 c 0.0177,-0.0177 0.0354,-0.0363 0.0522,-0.055 a 2.03783,2.03783 0 0 0 -0.026,-2.77481 z"
     fill="#ffffff"
     id="path66" />
  <path
     d="m 223.4474,43.013752 a 1.86559,1.86559 0 0 1 -1.31914,-3.18473 l 4.27751,-4.27763 -4.27751,-4.27763 a 1.8655527,1.8655527 0 0 1 2.63829,-2.63829 l 5.59677,5.59677 a 1.8654,1.8654 0 0 1 0,2.63829 l -5.59677,5.59677 a 1.85979,1.85979 0 0 1 -1.31915,0.54645 z"
     fill="#ffffff"
     id="path68" />
  <path
     d="m 193.59796,48.610522 a 1.86553,1.86553 0 0 1 -1.86559,-1.86559 v -1.86559 a 11.24925,11.24925 0 0 1 11.188,-11.19354 h 24.25825 a 1.86559,1.86559 0 1 1 0,3.73118 h -24.25271 a 7.507,7.507 0 0 0 -7.46236,7.46794 v 1.86 a 1.86553,1.86553 0 0 1 -1.86559,1.8656 z"
     fill="#ffffff"
     id="path70" />
  <path
     d="m 208.52268,63.535242 a 1.8598,1.8598 0 0 1 -1.31914,-0.54644 l -5.59677,-5.59678 a 1.86537,1.86537 0 0 1 0,-2.63828 l 5.59677,-5.59677 a 1.86555,1.86555 0 0 1 2.63829,2.63828 l -4.27752,4.27763 4.27752,4.27763 a 1.86559,1.86559 0 0 1 -1.31915,3.18473 z"
     fill="#ffffff"
     id="path72" />
  <path
     d="m 204.7915,57.938472 a 1.86559,1.86559 0 0 1 0,-3.73118 h 24.25264 a 7.507,7.507 0 0 0 7.46236,-7.46794 v -1.86 a 1.86559,1.86559 0 0 1 3.73118,0 v 1.86559 a 11.24925,11.24925 0 0 1 -11.188,11.19354 z"
     fill="#ffffff"
     id="path74" />
</svg>
