<?xml version="1.0" encoding="UTF-8" standalone="no"?>
<svg
   data-name="Layer 1"
   width="98"
   height="98"
   viewBox="0 0 98.000003 98.000002"
   version="1.1"
   id="svg367"
   sodipodi:docname="qws_trusted.svg"
   inkscape:version="1.2.1 (9c6d41e410, 2022-07-14)"
   xmlns:inkscape="http://www.inkscape.org/namespaces/inkscape"
   xmlns:sodipodi="http://sodipodi.sourceforge.net/DTD/sodipodi-0.dtd"
   xmlns="http://www.w3.org/2000/svg"
   xmlns:svg="http://www.w3.org/2000/svg">
  <defs
     id="defs371" />
  <sodipodi:namedview
     id="namedview369"
     pagecolor="#ffffff"
     bordercolor="#111111"
     borderopacity="1"
     inkscape:showpageshadow="0"
     inkscape:pageopacity="0"
     inkscape:pagecheckerboard="1"
     inkscape:deskcolor="#d1d1d1"
     showgrid="false"
     inkscape:zoom="1.212739"
     inkscape:cx="279.94482"
     inkscape:cy="229.23317"
     inkscape:window-width="1920"
     inkscape:window-height="1027"
     inkscape:window-x="4472"
     inkscape:window-y="-8"
     inkscape:window-maximized="1"
     inkscape:current-layer="svg367" />
  <path
     d="M 49.000477,98 A 49,49 0 1 1 98,48.999998 49.05567,49.05567 0 0 1 49.000477,98 Z"
     fill="#76ab54"
     id="path337" />
  <path
     d="m 46.170887,67.507328 a 3.488,3.488 0 0 1 -2.38134,-0.93555 l -16.15723,-15.00732 a 3.49994,3.49994 0 0 1 4.76367,-5.12891 l 13.68555,12.71192 27.07666,-27.07618 a 3.5,3.5 0 1 1 4.94922,4.9502 l -29.46094,29.46094 a 3.49275,3.49275 0 0 1 -2.47559,1.0249 z"
     fill="#ffffff"
     id="path365" />
  <path
     d="M 49.000477,98 A 49,49 0 1 1 98,48.999998 49.05567,49.05567 0 0 1 49.000477,98 Z"
     fill="#76ab54"
     id="path518" />
  <path
     d="m 46.170887,67.507328 a 3.488,3.488 0 0 1 -2.38134,-0.93555 l -16.15723,-15.00732 a 3.49994,3.49994 0 0 1 4.76367,-5.12891 l 13.68555,12.71192 27.07666,-27.07618 a 3.5,3.5 0 1 1 4.94922,4.9502 l -29.46094,29.46094 a 3.49275,3.49275 0 0 1 -2.47559,1.0249 z"
     fill="#ffffff"
     id="path546" />
</svg>
