<?xml version="1.0" encoding="UTF-8" standalone="no"?>
<svg
   viewBox="0 0 249.10324 154.2601"
   width="252.84"
   height="157.34531"
   class="illustration styles_illustrationTablet__1DWOa"
   version="1.1"
   id="svg86"
   sodipodi:docname="qws_maintenance.svg"
   inkscape:version="1.2.1 (9c6d41e410, 2022-07-14)"
   xmlns:inkscape="http://www.inkscape.org/namespaces/inkscape"
   xmlns:sodipodi="http://sodipodi.sourceforge.net/DTD/sodipodi-0.dtd"
   xmlns="http://www.w3.org/2000/svg"
   xmlns:svg="http://www.w3.org/2000/svg">
  <defs
     id="defs90" />
  <sodipodi:namedview
     id="namedview88"
     pagecolor="#ffffff"
     bordercolor="#111111"
     borderopacity="1"
     inkscape:showpageshadow="0"
     inkscape:pageopacity="0"
     inkscape:pagecheckerboard="1"
     inkscape:deskcolor="#d1d1d1"
     showgrid="false"
     inkscape:zoom="2.9802956"
     inkscape:cx="48.149587"
     inkscape:cy="78.515702"
     inkscape:window-width="1920"
     inkscape:window-height="1027"
     inkscape:window-x="4472"
     inkscape:window-y="-8"
     inkscape:window-maximized="1"
     inkscape:current-layer="layer1" />
  <g
     id="_479_data_maintenance_outline"
     data-name="#479_data_maintenance_outline"
     transform="translate(-75.844994,-73.228916)">
    <rect
       x="150.8"
       y="79.07"
       width="99.68"
       height="121.25"
       fill="#093f68"
       id="rect2" />
    <path
       d="M 250.49,201.32 H 150.8 a 1,1 0 0 1 -1,-1 V 79.07 a 1,1 0 0 1 1,-1 h 99.69 a 1,1 0 0 1 1,1 v 121.25 a 1,1 0 0 1 -1,1 z m -98.69,-2 h 97.69 V 80.07 H 151.8 Z"
       fill="#093f68"
       id="path4" />
    <rect
       x="144.67999"
       y="73.489998"
       width="110.81"
       height="33.880001"
       rx="4.2600002"
       fill="#78ab56"
       id="rect6" />
    <path
       d="M 251.23,108.36 H 149 a 5.27,5.27 0 0 1 -5.27,-5.26 V 77.75 A 5.27,5.27 0 0 1 149,72.49 h 102.23 a 5.27,5.27 0 0 1 5.26,5.26 v 25.35 a 5.27,5.27 0 0 1 -5.26,5.26 z M 149,74.49 a 3.27,3.27 0 0 0 -3.27,3.26 v 25.35 a 3.27,3.27 0 0 0 3.27,3.26 h 102.23 a 3.26,3.26 0 0 0 3.26,-3.26 V 77.75 a 3.26,3.26 0 0 0 -3.26,-3.26 z"
       fill="#093f68"
       id="path8" />
    <circle
       cx="237.5"
       cy="90.43"
       r="4.7399998"
       fill="#093f68"
       id="circle10" />
    <path
       d="M 200.09,91.43 H 159 a 1,1 0 0 1 0,-2 h 41.1 a 1,1 0 0 1 0,2 z"
       fill="#093f68"
       id="path12" />
    <rect
       x="144.67999"
       y="113.2"
       width="110.81"
       height="33.880001"
       rx="4.2600002"
       fill="#78ab56"
       id="rect14" />
    <path
       d="M 251.23,148.08 H 149 a 5.27,5.27 0 0 1 -5.27,-5.26 V 117.47 A 5.28,5.28 0 0 1 149,112.2 h 102.23 a 5.27,5.27 0 0 1 5.26,5.27 v 25.35 a 5.27,5.27 0 0 1 -5.26,5.26 z M 149,114.2 a 3.28,3.28 0 0 0 -3.27,3.27 v 25.35 a 3.27,3.27 0 0 0 3.27,3.26 h 102.23 a 3.26,3.26 0 0 0 3.26,-3.26 v -25.35 a 3.27,3.27 0 0 0 -3.26,-3.27 z"
       fill="#093f68"
       id="path16" />
    <circle
       cx="237.5"
       cy="130.14"
       r="4.7399998"
       fill="#093f68"
       id="circle18" />
    <path
       d="M 200.09,131.14 H 159 a 1,1 0 0 1 0,-2 h 41.1 a 1,1 0 1 1 0,2 z"
       fill="#093f68"
       id="path20" />
    <rect
       x="144.67999"
       y="152.92"
       width="110.81"
       height="33.880001"
       rx="4.2600002"
       fill="#78ab56"
       id="rect22" />
    <path
       d="M 251.23,187.8 H 149 a 5.28,5.28 0 0 1 -5.27,-5.27 v -25.35 a 5.27,5.27 0 0 1 5.27,-5.26 h 102.23 a 5.27,5.27 0 0 1 5.26,5.26 v 25.35 a 5.27,5.27 0 0 1 -5.26,5.27 z M 149,153.92 a 3.27,3.27 0 0 0 -3.27,3.26 v 25.35 a 3.28,3.28 0 0 0 3.27,3.27 h 102.23 a 3.27,3.27 0 0 0 3.26,-3.27 v -25.35 a 3.26,3.26 0 0 0 -3.26,-3.26 z"
       fill="#093f68"
       id="path24" />
    <circle
       cx="237.5"
       cy="169.86"
       r="4.7399998"
       fill="#093f68"
       id="circle26" />
    <path
       d="M 200.09,170.86 H 159 a 1,1 0 0 1 0,-2 h 41.1 a 1,1 0 1 1 0,2 z"
       fill="#093f68"
       id="path28" />
    <rect
       x="144.67999"
       y="192.64"
       width="110.81"
       height="33.880001"
       rx="4.2600002"
       fill="#78ab56"
       id="rect30" />
    <path
       d="M 251.23,227.51 H 149 a 5.27,5.27 0 0 1 -5.27,-5.26 V 196.9 a 5.27,5.27 0 0 1 5.27,-5.26 h 102.23 a 5.27,5.27 0 0 1 5.26,5.26 v 25.35 a 5.27,5.27 0 0 1 -5.26,5.26 z M 149,193.64 a 3.27,3.27 0 0 0 -3.27,3.26 v 25.35 a 3.27,3.27 0 0 0 3.27,3.26 h 102.23 a 3.26,3.26 0 0 0 3.26,-3.26 V 196.9 a 3.26,3.26 0 0 0 -3.26,-3.26 z"
       fill="#093f68"
       id="path32" />
    <circle
       cx="237.5"
       cy="209.57001"
       r="4.7399998"
       fill="#093f68"
       id="circle34" />
    <path
       d="M 200.09,210.57 H 159 a 1,1 0 0 1 0,-2 h 41.1 a 1,1 0 0 1 0,2 z"
       fill="#093f68"
       id="path36" />
    <g
       id="ahcQ9Z">
      <path
         d="m 191.26,184.1 a 3.13,3.13 0 0 0 -2.42,-2.92 c -1.17,-0.25 -2.35,-0.44 -3.53,-0.62 a 0.78,0.78 0 0 1 -0.7,-0.58 c -0.35,-0.94 -0.75,-1.87 -1.16,-2.79 a 0.62,0.62 0 0 1 0.06,-0.71 c 0.72,-1 1.44,-1.95 2.1,-3 a 3.11,3.11 0 0 0 -0.27,-3.79 c -1.08,-1.18 -2.24,-2.3 -3.37,-3.44 a 3.32,3.32 0 0 0 -4.52,-0.41 c -0.89,0.62 -1.77,1.24 -2.64,1.88 a 0.6,0.6 0 0 1 -0.71,0.07 c -1,-0.44 -2,-0.85 -3,-1.24 A 0.6,0.6 0 0 1 170.65,166 q -0.26,-1.62 -0.54,-3.24 A 3.25,3.25 0 0 0 167,160 c -1.66,0 -3.33,0 -5,0 a 3.15,3.15 0 0 0 -3,2.47 c -0.27,1.21 -0.45,2.44 -0.66,3.66 a 0.63,0.63 0 0 1 -0.45,0.55 c -1,0.38 -1.94,0.8 -2.9,1.23 a 0.59,0.59 0 0 1 -0.67,-0.06 c -1,-0.71 -1.92,-1.43 -2.92,-2.08 a 3.11,3.11 0 0 0 -3.82,0.24 c -1.27,1.16 -2.5,2.37 -3.67,3.63 a 3.21,3.21 0 0 0 -0.21,4.26 c 0.65,0.93 1.32,1.85 2,2.79 a 0.62,0.62 0 0 1 0.06,0.5 c -0.4,1 -0.82,2.08 -1.26,3.11 a 0.66,0.66 0 0 1 -0.4,0.33 c -1.07,0.2 -2.15,0.37 -3.23,0.54 a 3.26,3.26 0 0 0 -2.9,3 c -0.06,1.74 -0.05,3.48 0,5.21 a 3.11,3.11 0 0 0 2.4,2.9 c 1.24,0.28 2.49,0.47 3.74,0.68 a 0.6,0.6 0 0 1 0.52,0.43 c 0.39,1 0.81,2 1.25,2.93 a 0.54,0.54 0 0 1 -0.06,0.63 c -0.66,0.9 -1.31,1.79 -1.94,2.71 a 3.27,3.27 0 0 0 0.38,4.38 q 1.56,1.6 3.16,3.16 a 3.27,3.27 0 0 0 4.48,0.34 c 0.91,-0.64 1.82,-1.27 2.71,-1.93 a 0.51,0.51 0 0 1 0.59,-0.05 c 0.93,0.4 1.85,0.8 2.79,1.15 a 0.7,0.7 0 0 1 0.52,0.65 c 0.16,1.07 0.34,2.13 0.53,3.19 a 3.22,3.22 0 0 0 3,2.8 c 1.75,0.06 3.51,0.06 5.25,0 a 3.13,3.13 0 0 0 2.91,-2.44 c 0.26,-1.18 0.44,-2.38 0.64,-3.58 a 0.7,0.7 0 0 1 0.49,-0.62 c 1,-0.37 1.95,-0.78 2.91,-1.2 a 0.54,0.54 0 0 1 0.63,0.07 c 0.89,0.65 1.8,1.28 2.7,1.93 a 3.47,3.47 0 0 0 2.18,0.66 2.76,2.76 0 0 0 1.94,-0.79 c 1.15,-1.08 2.26,-2.2 3.37,-3.31 a 3.33,3.33 0 0 0 0.41,-4.6 c -0.62,-0.88 -1.24,-1.76 -1.88,-2.63 a 0.56,0.56 0 0 1 -0.06,-0.63 c 0.43,-1 0.84,-2 1.22,-2.95 a 0.63,0.63 0 0 1 0.56,-0.45 c 1.08,-0.16 2.16,-0.34 3.24,-0.53 a 3.25,3.25 0 0 0 2.83,-3.09 c -0.07,-1.67 -0.08,-3.38 -0.12,-5.09 z m -26.72,14.12 a 11.53,11.53 0 1 1 11.55,-11.51 11.52,11.52 0 0 1 -11.55,11.51 z"
         fill="#ffffff"
         stroke="#093f68"
         stroke-linecap="round"
         stroke-linejoin="round"
         stroke-width="2"
         id="path38" />
    </g>
    <path
       d="m 219.65,85.77 h -77.44 a 3.15,3.15 0 0 0 -3.16,3.15 v 17.13 a 3.16,3.16 0 0 0 3.16,3.16 H 157 l 10.16,12 v -12 h 52.53 a 3.17,3.17 0 0 0 3.16,-3.16 V 88.92 a 3.16,3.16 0 0 0 -3.2,-3.15 z"
       fill="#f56132"
       id="path41" />
    <path
       d="m 167.12,122.22 a 1,1 0 0 1 -0.76,-0.36 l -9.86,-11.65 h -14.29 a 4.16,4.16 0 0 1 -4.16,-4.16 V 88.92 a 4.15,4.15 0 0 1 4.16,-4.15 h 77.44 a 4.16,4.16 0 0 1 4.16,4.15 v 17.13 a 4.17,4.17 0 0 1 -4.16,4.16 h -51.53 v 11 a 1,1 0 0 1 -0.65,0.94 1.07,1.07 0 0 1 -0.35,0.07 z M 142.21,86.77 a 2.15,2.15 0 0 0 -2.16,2.15 v 17.13 a 2.16,2.16 0 0 0 2.16,2.16 H 157 a 1,1 0 0 1 0.76,0.35 l 8.4,9.93 v -9.28 a 1,1 0 0 1 1,-1 h 52.53 a 2.16,2.16 0 0 0 2.16,-2.16 V 88.92 a 2.16,2.16 0 0 0 -2.16,-2.15 z"
       fill="#093f68"
       id="path43" />
    <path
       d="m 265.82,130 v 34.14 c 0,3.78 -2.46,6.86 -5.48,6.86 h -40.71 c -3,0 -5.46,-3.08 -5.46,-6.86 V 130 c 0,-3.78 2.44,-6.86 5.46,-6.86 h 40.71 c 3.02,0.01 5.48,3.09 5.48,6.86 z"
       fill="#ffffff"
       id="path67" />
    <path
       d="m 260.34,172 h -40.71 c -3.56,0 -6.46,-3.52 -6.46,-7.86 V 130 c 0,-4.34 2.9,-7.86 6.46,-7.86 h 40.71 c 3.57,0 6.48,3.52 6.48,7.86 v 34.14 c 0,4.35 -2.91,7.86 -6.48,7.86 z m -40.71,-47.86 c -2.46,0 -4.46,2.63 -4.46,5.86 v 34.14 c 0,3.23 2,5.86 4.46,5.86 h 40.71 c 2.47,0 4.48,-2.63 4.48,-5.86 V 130 c 0,-3.23 -2,-5.86 -4.48,-5.86 z"
       fill="#093f68"
       id="path69" />
    <polygon
       points="230.62,146.34 240.12,156.08 242.78,153.42 233.01,143.96 233.04,143.93 232.88,139.93 227.45,136.7 223.43,140.72 226.62,146.18 "
       fill="#70cc40"
       id="polygon71" />
    <path
       d="m 240.12,157.08 v 0 a 1,1 0 0 1 -0.71,-0.3 l -9.22,-9.45 -3.6,-0.15 a 1,1 0 0 1 -0.82,-0.5 l -3.19,-5.45 a 1,1 0 0 1 0.15,-1.21 l 4,-4 a 1,1 0 0 1 1.22,-0.15 l 5.42,3.23 a 1,1 0 0 1 0.49,0.81 l 0.15,3.67 9.44,9.15 a 1,1 0 0 1 0.31,0.71 1,1 0 0 1 -0.29,0.71 l -2.66,2.66 a 1,1 0 0 1 -0.69,0.27 z m -12.91,-11.88 3.45,0.14 a 1,1 0 0 1 0.68,0.31 l 8.79,9 1.22,-1.22 -9,-8.76 A 1,1 0 0 1 232,144 a 1.25,1.25 0 0 1 0,-0.21 l -0.13,-3.24 -4.26,-2.55 -2.93,2.92 z"
       fill="#093f68"
       id="path73" />
    <rect
       x="242.08"
       y="152.3"
       width="7.29"
       height="13.49"
       rx="1.88"
       transform="rotate(-45,245.72891,159.04575)"
       fill="#70cc40"
       id="rect75" />
    <path
       d="m 247.92,166.62 a 2.86,2.86 0 0 1 -2,-0.85 L 239,158.89 a 2.89,2.89 0 0 1 0,-4.07 l 2.49,-2.5 a 2.9,2.9 0 0 1 4.08,0 l 6.88,6.89 a 2.89,2.89 0 0 1 0,4.07 l -2.45,2.49 a 2.86,2.86 0 0 1 -2.08,0.85 z m -4.39,-13.14 a 0.89,0.89 0 0 0 -0.62,0.26 l -2.49,2.49 a 0.88,0.88 0 0 0 0,1.25 l 6.88,6.88 a 0.88,0.88 0 0 0 1.24,0 l 2.5,-2.49 a 0.89,0.89 0 0 0 0,-1.25 l -6.88,-6.88 a 0.91,0.91 0 0 0 -0.63,-0.26 z"
       fill="#093f68"
       id="path77" />
    <path
       d="m 254.27,148.3 a 7.75,7.75 0 0 0 1.56,-8.77 l -4.09,4.09 -3.31,-0.29 -0.79,-3.81 4,-4 a 7.78,7.78 0 0 0 -10.47,8.74 L 227.61,158 a 4.35,4.35 0 0 0 6.15,6.14 l 13.52,-13.73 a 7.77,7.77 0 0 0 6.99,-2.11 z m -24.5,13.7 a 1.92,1.92 0 1 1 2.71,0 1.93,1.93 0 0 1 -2.71,0 z"
       fill="#ffbc0e"
       id="path79" />
    <path
       d="m 230.68,166.44 a 5.34,5.34 0 0 1 -3.77,-9.12 L 240.07,144 a 8.78,8.78 0 0 1 11.9,-9.33 1,1 0 0 1 0.61,0.72 1,1 0 0 1 -0.27,0.92 l -3.58,3.58 0.53,2.55 2.1,0.18 3.77,-3.76 a 1,1 0 0 1 0.88,-0.28 1,1 0 0 1 0.73,0.57 A 8.8,8.8 0 0 1 255,149 v 0 a 8.75,8.75 0 0 1 -7.35,2.5 l -13.16,13.36 a 5.34,5.34 0 0 1 -3.81,1.58 z M 248.78,136 a 6.77,6.77 0 0 0 -6.66,8.08 1,1 0 0 1 -0.27,0.89 l -13.52,13.73 a 3.3410814,3.3410814 0 1 0 4.72,4.73 l 13.52,-13.72 a 1,1 0 0 1 0.9,-0.28 6.81,6.81 0 0 0 6.1,-1.86 v 0 a 6.83,6.83 0 0 0 1.83,-6.22 l -3,3 a 1,1 0 0 1 -0.8,0.29 l -3.3,-0.29 a 1,1 0 0 1 -0.89,-0.79 l -0.8,-3.82 a 1,1 0 0 1 0.28,-0.91 l 2.73,-2.73 c -0.25,-0.05 -0.55,-0.1 -0.84,-0.1 z m -17.65,27.54 a 2.91,2.91 0 0 1 -2.06,-5 3,3 0 0 1 4.12,0 2.92,2.92 0 0 1 0,4.12 3,3 0 0 1 -2.06,0.91 z m 0,-3.83 a 0.91,0.91 0 0 0 -0.65,0.27 0.91216775,0.91216775 0 0 0 1.29,1.29 0.91,0.91 0 0 0 0,-1.29 0.91,0.91 0 0 0 -0.64,-0.24 z"
       fill="#093f68"
       id="path81" />
    <path
       d="m 265.82,131 h -51.65 a 1,1 0 1 1 0,-2 h 51.65 a 1,1 0 0 1 0,2 z"
       fill="#093f68"
       id="path83" />
  </g>
  <g
     inkscape:groupmode="layer"
     id="layer1"
     inkscape:label="Layer 1">
    <text
       xml:space="preserve"
       style="font-style:normal;font-variant:normal;font-weight:bold;font-stretch:normal;font-size:17.0772px;line-height:1.25;font-family:'SauceCodePro Nerd Font Mono';-inkscape-font-specification:'SauceCodePro Nerd Font Mono, Bold';font-variant-ligatures:normal;font-variant-caps:normal;font-variant-numeric:normal;font-variant-east-asian:normal;letter-spacing:0px;word-spacing:0px;fill:#ffffff;fill-opacity:1;stroke-width:0.985221"
       x="72.727211"
       y="28.710995"
       id="text6928"><tspan
         sodipodi:role="line"
         id="tspan6926"
         style="font-style:normal;font-variant:normal;font-weight:bold;font-stretch:normal;font-size:17.0772px;font-family:'SauceCodePro Nerd Font Mono';-inkscape-font-specification:'SauceCodePro Nerd Font Mono, Bold';font-variant-ligatures:normal;font-variant-caps:normal;font-variant-numeric:normal;font-variant-east-asian:normal;fill:#ffffff;fill-opacity:1;stroke-width:0.985221"
         x="72.727211"
         y="28.710995">STRESS</tspan></text>
  </g>
</svg>
