<?xml version="1.0" encoding="UTF-8" standalone="no"?>
<svg
   viewBox="0 -42 222.60128 0.00057806637"
   width="55.896999"
   height="34.050999"
   class="illustration styles_illustrationTablet__1DWOa"
   version="1.1"
   id="svg109"
   sodipodi:docname="qws_websites_2.svg"
   inkscape:version="1.2.1 (9c6d41e410, 2022-07-14)"
   xmlns:inkscape="http://www.inkscape.org/namespaces/inkscape"
   xmlns:sodipodi="http://sodipodi.sourceforge.net/DTD/sodipodi-0.dtd"
   xmlns="http://www.w3.org/2000/svg"
   xmlns:svg="http://www.w3.org/2000/svg">
  <defs
     id="defs113" />
  <sodipodi:namedview
     id="namedview111"
     pagecolor="#ffffff"
     bordercolor="#111111"
     borderopacity="1"
     inkscape:showpageshadow="0"
     inkscape:pageopacity="0"
     inkscape:pagecheckerboard="1"
     inkscape:deskcolor="#d1d1d1"
     showgrid="false"
     inkscape:zoom="10.02"
     inkscape:cx="22.305389"
     inkscape:cy="26.546906"
     inkscape:window-width="1920"
     inkscape:window-height="1027"
     inkscape:window-x="4472"
     inkscape:window-y="-8"
     inkscape:window-maximized="1"
     inkscape:current-layer="svg109" />
  <g
     id="_59_ui_design_outline"
     data-name="#59_ui_design_outline"
     transform="translate(-91.643849,-189.87484)">
    <rect
       x="149.38"
       y="83.75"
       width="146.82001"
       height="100.05"
       rx="8.5600004"
       fill="#78ab56"
       id="rect2" />
    <path
       d="M 287.63,184.8 H 158 a 9.58,9.58 0 0 1 -9.57,-9.57 V 92.31 A 9.57,9.57 0 0 1 158,82.75 h 129.63 a 9.57,9.57 0 0 1 9.57,9.56 v 82.92 a 9.58,9.58 0 0 1 -9.57,9.57 z M 158,84.75 a 7.58,7.58 0 0 0 -7.57,7.56 v 82.92 a 7.58,7.58 0 0 0 7.57,7.57 h 129.63 a 7.58,7.58 0 0 0 7.57,-7.57 V 92.31 a 7.57,7.57 0 0 0 -7.57,-7.56 z"
       fill="#000000"
       id="path4" />
    <polygon
       points="204.23,183.8 241.35,183.8 246.25,205.31 199.33,205.31 "
       fill="#78ab56"
       id="polygon6" />
    <path
       d="m 246.25,206.31 h -46.92 a 1,1 0 0 1 -0.78,-0.38 1,1 0 0 1 -0.19,-0.84 l 4.89,-21.51 a 1,1 0 0 1 1,-0.78 h 37.12 a 1,1 0 0 1 1,0.78 l 4.89,21.51 a 1,1 0 0 1 -0.19,0.84 1,1 0 0 1 -0.82,0.38 z m -45.67,-2 H 245 L 240.56,184.8 H 205 Z"
       fill="#000000"
       id="path8" />
    <rect
       x="159.39"
       y="92.089996"
       width="126.8"
       height="74.25"
       fill="#ffffff"
       id="rect10" />
    <path
       d="m 286.19,167.34 h -126.8 a 1,1 0 0 1 -1,-1 V 92.09 a 1,1 0 0 1 1,-1 h 126.8 a 1,1 0 0 1 1,1 v 74.25 a 1,1 0 0 1 -1,1 z m -125.8,-2 h 124.8 V 93.09 h -124.8 z"
       fill="#000000"
       id="path12" />
    <rect
       x="189.55"
       y="205.31"
       width="66.470001"
       height="8.04"
       rx="4.02"
       fill="#78ab56"
       id="rect14" />
    <path
       d="m 252,214.35 h -58.42 a 5,5 0 1 1 0,-10 H 252 a 5,5 0 0 1 0,10 z m -58.43,-8 a 3,3 0 1 0 0,6 H 252 a 3,3 0 1 0 0,-6 z"
       fill="#000000"
       id="path16" />
    <path
       d="M 285.6,102.34 H 160 a 1,1 0 0 1 0,-2 h 125.6 a 1,1 0 0 1 0,2 z"
       fill="#000000"
       id="path18" />
    <circle
       cx="166.24001"
       cy="96.790001"
       r="1.95"
       fill="#ffbc0e"
       id="circle20" />
    <circle
       cx="173.8"
       cy="96.790001"
       r="1.95"
       fill="#000000"
       id="circle22" />
    <circle
       cx="181.36"
       cy="96.790001"
       r="1.95"
       fill="#000000"
       id="circle24" />
    <rect
       x="173.8"
       y="107.36"
       width="54.080002"
       height="21.860001"
       fill="#ffbc0e"
       id="rect26" />
    <path
       d="M 227.88,130.21 H 173.8 a 1,1 0 0 1 -1,-1 v -21.85 a 1,1 0 0 1 1,-1 h 54.08 a 1,1 0 0 1 1,1 v 21.85 a 1,1 0 0 1 -1,1 z m -53.08,-2 h 52.08 V 108.36 H 174.8 Z"
       fill="#000000"
       id="path28" />
    <path
       d="m 173.8,130.21 a 1,1 0 0 1 -0.77,-0.36 1,1 0 0 1 0.14,-1.41 l 17.75,-14.59 a 1,1 0 0 1 1.27,0 l 14.12,11.76 a 1.0012492,1.0012492 0 1 1 -1.28,1.54 L 191.55,115.91 174.43,130 a 1,1 0 0 1 -0.63,0.21 z"
       fill="#000000"
       id="path30" />
    <path
       d="M 227.88,130.21 A 1.05,1.05 0 0 1 227.26,130 l -16,-12.68 -8.13,7.17 a 1,1 0 0 1 -1.32,-1.5 l 8.75,-7.73 a 1,1 0 0 1 1.28,0 l 16.65,13.2 a 1,1 0 0 1 -0.63,1.78 z"
       fill="#000000"
       id="path32" />
    <path
       d="m 269.36,109.35 h -31 a 1,1 0 0 1 0,-2 h 31 a 1,1 0 0 1 0,2 z"
       fill="#dfeaef"
       id="path34" />
    <path
       d="m 269.36,118.19 h -31 a 1,1 0 1 1 0,-2 h 31 a 1,1 0 0 1 0,2 z"
       fill="#dfeaef"
       id="path36" />
    <path
       d="m 262.77,127 h -24.43 a 1,1 0 0 1 0,-2 h 24.43 a 1,1 0 0 1 0,2 z"
       fill="#dfeaef"
       id="path38" />
    <rect
       x="173.8"
       y="136.49001"
       width="23.059999"
       height="16.209999"
       fill="#70cc40"
       id="rect40" />
    <path
       d="M 196.86,153.7 H 173.8 a 1,1 0 0 1 -1,-1 v -16.21 a 1,1 0 0 1 1,-1 h 23.06 a 1,1 0 0 1 1,1 v 16.21 a 1,1 0 0 1 -1,1 z m -22.06,-2 h 21.06 V 137.49 H 174.8 Z"
       fill="#000000"
       id="path42" />
    <rect
       x="210.92"
       y="136.49001"
       width="23.059999"
       height="16.209999"
       fill="#70cc40"
       id="rect44" />
    <path
       d="m 234,153.7 h -23.08 a 1,1 0 0 1 -1,-1 v -16.21 a 1,1 0 0 1 1,-1 H 234 a 1,1 0 0 1 1,1 v 16.21 a 1,1 0 0 1 -1,1 z m -22.06,-2 H 233 v -14.21 h -21.08 z"
       fill="#000000"
       id="path46" />
    <rect
       x="248.03999"
       y="136.49001"
       width="23.059999"
       height="16.209999"
       fill="#70cc40"
       id="rect48" />
    <path
       d="M 271.1,153.7 H 248 a 1,1 0 0 1 -1,-1 v -16.21 a 1,1 0 0 1 1,-1 h 23.1 a 1,1 0 0 1 1,1 v 16.21 a 1,1 0 0 1 -1,1 z m -22.06,-2 H 270.1 V 137.49 H 249 Z"
       fill="#000000"
       id="path50" />
    <path
       d="m 190.3,161.27 h -9.93 a 1,1 0 0 1 0,-2 h 9.93 a 1,1 0 0 1 0,2 z"
       fill="#dfeaef"
       id="path52" />
    <path
       d="m 227.42,161.27 h -9.94 a 1,1 0 0 1 0,-2 h 9.94 a 1,1 0 0 1 0,2 z"
       fill="#dfeaef"
       id="path54" />
    <path
       d="m 264.54,161.27 h -9.94 a 1,1 0 0 1 0,-2 h 9.94 a 1,1 0 0 1 0,2 z"
       fill="#dfeaef"
       id="path56" />
    <rect
       x="99.480003"
       y="111.49"
       width="65.709999"
       height="101.88"
       rx="5.3299999"
       fill="#78ab56"
       id="rect58" />
    <path
       d="m 159.85,214.37 h -55 A 6.35,6.35 0 0 1 98.47,208 v -91.18 a 6.35,6.35 0 0 1 6.34,-6.33 h 55 a 6.34,6.34 0 0 1 6.34,6.33 V 208 a 6.34,6.34 0 0 1 -6.3,6.37 z m -55,-101.88 a 4.34,4.34 0 0 0 -4.34,4.33 V 208 a 4.35,4.35 0 0 0 4.34,4.33 h 55 a 4.35,4.35 0 0 0 4.34,-4.33 v -91.18 a 4.34,4.34 0 0 0 -4.34,-4.33 z"
       fill="#000000"
       id="path60" />
    <rect
       x="105.02"
       y="125.01"
       width="54.630001"
       height="73.199997"
       rx="2.5599999"
       fill="#ffffff"
       id="rect62" />
    <path
       d="m 157.08,199.21 h -49.5 a 3.56,3.56 0 0 1 -3.56,-3.56 v -68.08 a 3.56,3.56 0 0 1 3.56,-3.56 h 49.5 a 3.57,3.57 0 0 1 3.57,3.56 v 68.08 a 3.56,3.56 0 0 1 -3.57,3.56 z M 107.58,126 a 1.56,1.56 0 0 0 -1.56,1.56 v 68.08 a 1.56,1.56 0 0 0 1.56,1.56 h 49.5 a 1.56,1.56 0 0 0 1.57,-1.56 v -68.07 a 1.56,1.56 0 0 0 -1.57,-1.56 z"
       fill="#000000"
       id="path64" />
    <circle
       cx="123.85"
       cy="117.16"
       r="0.86000001"
       fill="#000000"
       id="circle66" />
    <path
       d="M 141.67,118.16 H 128 a 1,1 0 0 1 0,-2 h 13.72 a 1,1 0 0 1 0,2 z"
       fill="#000000"
       id="path68" />
    <circle
       cx="132.33"
       cy="207.08"
       r="3.6099999"
       fill="#000000"
       id="circle70" />
    <rect
       x="111.64"
       y="132.88"
       width="41.470001"
       height="26.139999"
       fill="#f56132"
       id="rect72" />
    <path
       d="m 153.12,160 h -41.48 a 1,1 0 0 1 -1,-1 v -26.12 a 1,1 0 0 1 1,-1 h 41.48 a 1,1 0 0 1 1,1 V 159 a 1,1 0 0 1 -1,1 z m -40.48,-2 h 39.48 v -24.12 h -39.48 z"
       fill="#000000"
       id="path74" />
    <rect
       x="111.64"
       y="182.37"
       width="41.470001"
       height="8.6999998"
       rx="4.3499999"
       fill="#70cc40"
       id="rect76" />
    <path
       d="M 148.76,192.08 H 116 a 5.36,5.36 0 0 1 0,-10.71 h 32.77 a 5.36,5.36 0 1 1 0,10.71 z M 116,183.37 a 3.36,3.36 0 0 0 0,6.71 h 32.77 a 3.36,3.36 0 1 0 0,-6.71 z"
       fill="#000000"
       id="path78" />
    <path
       d="m 153.12,167.33 h -41.48 a 1,1 0 0 1 0,-2 h 41.48 a 1,1 0 0 1 0,2 z"
       fill="#dfeaef"
       id="path80" />
    <path
       d="m 143.79,175.35 h -32.15 a 1,1 0 0 1 0,-2 h 32.15 a 1,1 0 0 1 0,2 z"
       fill="#dfeaef"
       id="path82" />
    <path
       d="m 139.52,156.53 a 1,1 0 0 1 -0.76,-0.35 L 126.24,141.77 113,155.61 a 1.0007122,1.0007122 0 1 1 -1.44,-1.39 l 14,-14.63 a 1,1 0 0 1 1.47,0 l 13.24,15.24 a 1,1 0 0 1 -0.1,1.41 1,1 0 0 1 -0.65,0.29 z"
       fill="#000000"
       id="path84" />
    <path
       d="m 153.11,153.81 a 1,1 0 0 1 -0.64,-0.24 l -8.63,-7.32 -6.66,6.5 a 1.0041912,1.0041912 0 0 1 -1.4,-1.44 l 7.31,-7.13 a 1,1 0 0 1 1.35,0 l 9.32,7.9 a 1,1 0 0 1 -0.65,1.77 z"
       fill="#000000"
       id="path86" />
    <path
       d="m 92.6,214.37 a 1,1 0 0 1 -0.94,-0.83 1,1 0 0 1 0.85,-1.17 c 1,-0.2 165.52,-0.06 215.9,0 a 1,1 0 0 1 0,2 v 0 c -2.13,0 -212.7,-0.18 -215.63,0 z"
       fill="#000000"
       id="path88" />
    <rect
       x="273.48999"
       y="162.42999"
       width="34.91"
       height="26.67"
       rx="2.72"
       fill="#ffffff"
       id="rect90" />
    <path
       d="m 305.69,190.1 h -29.48 a 3.73,3.73 0 0 1 -3.72,-3.72 v -21.23 a 3.73,3.73 0 0 1 3.72,-3.72 h 29.48 a 3.73,3.73 0 0 1 3.72,3.72 v 21.23 a 3.73,3.73 0 0 1 -3.72,3.72 z m -29.48,-26.67 a 1.72,1.72 0 0 0 -1.72,1.72 v 21.23 a 1.72,1.72 0 0 0 1.72,1.72 h 29.48 a 1.72,1.72 0 0 0 1.72,-1.72 v -21.23 a 1.72,1.72 0 0 0 -1.72,-1.72 z"
       fill="#000000"
       id="path92" />
    <path
       d="m 302.34,170.53 h -21.4 a 1,1 0 0 1 0,-2 h 21.4 a 1,1 0 0 1 0,2 z"
       fill="#dfeaef"
       id="path94" />
    <path
       d="m 302.34,176.76 h -21.4 a 1,1 0 0 1 0,-2 h 21.4 a 1,1 0 0 1 0,2 z"
       fill="#dfeaef"
       id="path96" />
    <path
       d="m 296.48,183 h -15.54 a 1,1 0 0 1 0,-2 h 15.54 a 1,1 0 0 1 0,2 z"
       fill="#dfeaef"
       id="path98" />
    <polygon
       points="301.1,196.55 294.17,177.41 313.31,184.34 "
       fill="#ffffff"
       id="polygon100" />
    <path
       d="m 301.1,197.55 h -0.22 a 1,1 0 0 1 -0.72,-0.63 l -6.93,-19.14 a 1,1 0 0 1 1.28,-1.28 l 19.14,6.93 A 1,1 0 0 1 314,185 l -12.21,12.21 a 1,1 0 0 1 -0.69,0.34 z m -5.26,-18.47 5.67,15.65 10,-10 z"
       fill="#000000"
       id="path102" />
    <line
       x1="307.20999"
       y1="190.44"
       x2="311.32001"
       y2="194.55"
       fill="#ffffff"
       id="line104" />
    <path
       d="m 311.32,195.55 a 1,1 0 0 1 -0.71,-0.29 l -4.11,-4.11 a 1,1 0 0 1 0,-1.42 1,1 0 0 1 1.41,0 l 4.11,4.12 a 1,1 0 0 1 0,1.41 1,1 0 0 1 -0.7,0.29 z"
       fill="#000000"
       id="path106" />
  </g>
</svg>
